# xmcd
#
# Track frame offsets: 
#        150
#        13011
#        28615
#        43053
#        57108
#        74337
#        84316
#        95935
#        108073
#        123401
#        135020
#        149731
#        163309
#        176919
#
# Disc length: 2454 seconds
#
# Revision: 0
# Processed by: cddbd v1.5.2PL0 Copyright (c) Steve Scherf et al.
# Submitted via: ExactAudioCopy v0.99pb4
#
DISCID=c309940e
DTITLE=Lonesome Spurs - Lonesome Spurs
DYEAR=1900
DGENRE=Country
TTITLE0=Ride Straddle Saloon
TTITLE1=Lovesick
TTITLE2=Other Side Of Farewell
TTITLE3=Big Wheel
TTITLE4=My Home
TTITLE5=Lonesome Spur Stomp
TTITLE6=Trouble
TTITLE7=He Spelled My Name Wrong
TTITLE8=Pieces I'm Missing
TTITLE9=One Cup Of Coffee
TTITLE10=Jack and Coke
TTITLE11=Rollin' (In My Sweet Baby's Arms)
TTITLE12=Lonesome Midnight
TTITLE13=Honeydippers Stomp
EXTD=
EXTT0=
EXTT1=
EXTT2=
EXTT3=
EXTT4=
EXTT5=
EXTT6=
EXTT7=
EXTT8=
EXTT9=
EXTT10=
EXTT11=
EXTT12=
EXTT13=
PLAYORDER=
